<svg width="100%" height="100%" viewBox="0 0 24 24" fill="none" xmlns="http://www.w3.org/2000/svg">
<path d="M20.1541 10.0115C20.7398 10.5355 21.233 11.0442 21.603 11.445C21.8586 11.7282 22.0001 12.0962 22.0001 12.4777C22.0001 12.8592 21.8586 13.2272 21.603 13.5104C19.9845 15.2522 16.3006 18.6433 12.0001 18.6433H11.3835" stroke="#fff" stroke-width="1.71429" stroke-linecap="round" stroke-linejoin="round"/>
<path d="M7.17544 17.3023C5.38994 16.3023 3.77663 15.022 2.39712 13.5104C2.1415 13.2272 2 12.8592 2 12.4777C2 12.0962 2.1415 11.7282 2.39712 11.445C4.01559 9.7032 7.69951 6.31213 12 6.31213C13.6952 6.34756 15.3542 6.80871 16.8246 7.65315" stroke="#fff" stroke-width="1.71429" stroke-linecap="round" stroke-linejoin="round"/>
<path d="M20.4775 4L3.52222 20.9553" stroke="#fff" stroke-width="1.71429" stroke-linecap="square" stroke-linejoin="round"/>
<path d="M9.82666 14.651C9.24773 14.0756 8.92068 13.294 8.91724 12.4777C8.91724 11.6601 9.24203 10.876 9.82016 10.2978C10.3983 9.71969 11.1824 9.3949 12 9.3949C12.8163 9.39834 13.5979 9.72539 14.1734 10.3043" stroke="#fff" stroke-width="1.71429" stroke-linecap="round" stroke-linejoin="round"/>
<path d="M14.6819 14.019C14.4075 14.4881 14.014 14.8763 13.5413 15.1443" stroke="#fff" stroke-width="1.71429" stroke-linecap="round" stroke-linejoin="round"/>
</svg>
