<svg width="100%" height="100%" viewBox="0 0 24 24" fill="none" xmlns="http://www.w3.org/2000/svg">
<path  d="M22.0316 11.1328C22.2872 11.4161 22.4287 11.784 22.4287 12.1656C22.4287 12.5471 22.2872 12.9151 22.0316 13.1983C20.4131 14.9401 16.7292 18.3311 12.4287 18.3311C8.12823 18.3311 4.4443 14.9401 2.82583 13.1983C2.57021 12.9151 2.42871 12.5471 2.42871 12.1656C2.42871 11.784 2.57021 11.4161 2.82583 11.1328C4.4443 9.39106 8.12823 6 12.4287 6C16.7292 6 20.4131 9.39106 22.0316 11.1328Z" stroke="#fff" stroke-width="1.71429" stroke-linecap="round" stroke-linejoin="round"/>
<path  d="M12.4287 15.2483C14.1313 15.2483 15.5115 13.8681 15.5115 12.1655C15.5115 10.463 14.1313 9.08276 12.4287 9.08276C10.7262 9.08276 9.34595 10.463 9.34595 12.1655C9.34595 13.8681 10.7262 15.2483 12.4287 15.2483Z" stroke="#fff" stroke-width="1.71429" stroke-linecap="round" stroke-linejoin="round"/>
</svg>
